<svg id="Component_43_1" data-name="Component 43 – 1" xmlns="http://www.w3.org/2000/svg" width="355.693" height="355.693" viewBox="0 0 355.693 355.693">
  <g id="Group_4" data-name="Group 4" transform="translate(9.108 8.984)">
    <path id="Path_241" data-name="Path 241" d="M-219.731,177.447l2.975-2.474,4.743,5.708a10.993,10.993,0,0,1-1.549,3.53,13.459,13.459,0,0,1-2.651,2.986,10.7,10.7,0,0,1-4.715,2.341,9.05,9.05,0,0,1-4.9-.311,9.292,9.292,0,0,1-4.112-2.921,9.28,9.28,0,0,1-2.121-4.576,8.981,8.981,0,0,1,.608-4.889,10.893,10.893,0,0,1,3.2-4.243,11.275,11.275,0,0,1,3.875-2.167,8.647,8.647,0,0,1,4.036-.3l-.486,3.668a6.286,6.286,0,0,0-4.957,1.437,6.462,6.462,0,0,0-1.925,2.55,5.275,5.275,0,0,0-.307,2.942,6.094,6.094,0,0,0,1.372,2.834,6,6,0,0,0,2.522,1.847,5.326,5.326,0,0,0,2.945.253,6.241,6.241,0,0,0,2.84-1.392,6.852,6.852,0,0,0,2.03-2.707Z" transform="translate(289.751 -134.395)" fill="#fff"/>
    <path id="Path_242" data-name="Path 242" d="M-205.91,180.015l-5.715-2.4-.176.113-3.108,1.978,2.74,4.3-3.572,2.274-9.829-15.431,6.68-4.253a10.146,10.146,0,0,1,4-1.583,6.269,6.269,0,0,1,3.561.46,6.32,6.32,0,0,1,2.709,2.457,6.213,6.213,0,0,1,1.063,3.491,6.238,6.238,0,0,1-1.133,3.4l6.619,2.755Zm-8.437-11.251a4.457,4.457,0,0,0-2.888.865l-2.91,1.853,3.426,5.379,2.91-1.853a4.406,4.406,0,0,0,2-2.263,2.9,2.9,0,0,0-.427-2.518A2.9,2.9,0,0,0-214.347,168.764Z" transform="translate(297.52 -140.385)" fill="#fff"/>
    <path id="Path_243" data-name="Path 243" d="M-207.66,179.514a9.13,9.13,0,0,1-4.672-1.566,9.268,9.268,0,0,1-3.21-3.857,9.269,9.269,0,0,1-.86-4.944,9.129,9.129,0,0,1,1.827-4.576,10.693,10.693,0,0,1,4.145-3.271,10.637,10.637,0,0,1,5.166-1.037,9.234,9.234,0,0,1,4.67,1.568,9.184,9.184,0,0,1,3.223,3.851,9.173,9.173,0,0,1,.849,4.95,9.2,9.2,0,0,1-1.829,4.574,10.581,10.581,0,0,1-4.132,3.267A10.669,10.669,0,0,1-207.66,179.514Zm6.007-6.22a5.356,5.356,0,0,0,.989-2.746,6.087,6.087,0,0,0-.6-3.064,6.1,6.1,0,0,0-1.949-2.439,5.341,5.341,0,0,0-2.733-1.024,5.806,5.806,0,0,0-2.969.553,5.8,5.8,0,0,0-2.343,1.906,5.317,5.317,0,0,0-.989,2.746,6.1,6.1,0,0,0,.595,3.064,6.151,6.151,0,0,0,1.949,2.439,5.363,5.363,0,0,0,2.735,1.024A5.819,5.819,0,0,0-204,175.2,5.826,5.826,0,0,0-201.653,173.293Z" transform="translate(308.259 -145.908)" fill="#fff"/>
    <path id="Path_244" data-name="Path 244" d="M-199.255,175.506a9.092,9.092,0,0,1-4.4-2.219,9.239,9.239,0,0,1-2.624-4.275,9.227,9.227,0,0,1-.146-5.016,9.138,9.138,0,0,1,2.463-4.267,10.706,10.706,0,0,1,4.569-2.646,10.592,10.592,0,0,1,5.26-.285,9.226,9.226,0,0,1,4.4,2.219,9.156,9.156,0,0,1,2.637,4.273,9.168,9.168,0,0,1,.135,5.018,9.229,9.229,0,0,1-2.465,4.267,10.565,10.565,0,0,1-4.556,2.642A10.665,10.665,0,0,1-199.255,175.506Zm6.834-5.3a5.35,5.35,0,0,0,1.372-2.576,6.148,6.148,0,0,0-.152-3.119,6.124,6.124,0,0,0-1.581-2.692,5.337,5.337,0,0,0-2.561-1.4,5.82,5.82,0,0,0-3.016.122,5.815,5.815,0,0,0-2.592,1.551,5.339,5.339,0,0,0-1.372,2.579,6.09,6.09,0,0,0,.152,3.117,6.1,6.1,0,0,0,1.581,2.694,5.357,5.357,0,0,0,2.559,1.4,5.807,5.807,0,0,0,3.019-.124A5.807,5.807,0,0,0-192.421,170.209Z" transform="translate(319.743 -150.214)" fill="#fff"/>
    <path id="Path_245" data-name="Path 245" d="M-178.24,153.982l-4.929,19.316-4.129.66-10.685-16.816,4.517-.723,7.56,12.024,3.511-13.8Z" transform="translate(330.016 -153.285)" fill="#fff"/>
    <path id="Path_246" data-name="Path 246" d="M-172.7,168.531l.144,3.393-14.152.6-.775-18.279,13.812-.584.144,3.393-9.609.407.168,3.968,8.487-.359.139,3.291-8.487.359.181,4.23Z" transform="translate(342.379 -153.662)" fill="#fff"/>
    <path id="Path_247" data-name="Path 247" d="M-138.872,184.067l5.018-9.761-8.936,5.56-1.694-.876L-145.2,168.7l-4.933,9.541-3.528-1.823,8.4-16.252,3.11,1.609.86,13.242,11.212-7,3.088,1.6-8.357,16.276Z" transform="translate(382.225 -145.995)" fill="#fff"/>
    <path id="Path_248" data-name="Path 248" d="M-141.668,180.851a9.125,9.125,0,0,1-.9-4.846,9.248,9.248,0,0,1,1.808-4.678,9.233,9.233,0,0,1,3.9-3.158,9.1,9.1,0,0,1,4.885-.629,10.683,10.683,0,0,1,4.876,2.03,10.6,10.6,0,0,1,3.417,4.01,9.224,9.224,0,0,1,.9,4.844,9.16,9.16,0,0,1-1.8,4.687,9.137,9.137,0,0,1-3.912,3.149,9.2,9.2,0,0,1-4.885.629,10.586,10.586,0,0,1-4.866-2.023A10.691,10.691,0,0,1-141.668,180.851Zm8.357,2.222a5.337,5.337,0,0,0,2.881-.473,6.114,6.114,0,0,0,2.387-2.012,6.114,6.114,0,0,0,1.183-2.89,5.341,5.341,0,0,0-.436-2.886,5.8,5.8,0,0,0-1.927-2.326,5.8,5.8,0,0,0-2.805-1.122,5.361,5.361,0,0,0-2.881.473,6.114,6.114,0,0,0-2.387,2.012,6.115,6.115,0,0,0-1.183,2.888,5.345,5.345,0,0,0,.436,2.888,5.788,5.788,0,0,0,1.93,2.326A5.815,5.815,0,0,0-133.312,183.073Z" transform="translate(395.245 -137.425)" fill="#fff"/>
    <path id="Path_249" data-name="Path 249" d="M-112.938,185.586l-18.336,7.825-3.034-2.877,6.863-18.706,3.319,3.147-4.953,13.312,13.087-5.6Z" transform="translate(405.021 -132.264)" fill="#fff"/>
    <path id="Path_250" data-name="Path 250" d="M-118.341,199.676l-2.607,2.178-9.078-10.874,14.043-11.724,8.86,10.613-2.609,2.178-6.161-7.383-3.051,2.546,5.445,6.521-2.529,2.11-5.443-6.521-3.252,2.714Z" transform="translate(410.064 -123.514)" fill="#fff"/>
    <path id="Path_251" data-name="Path 251" d="M-96,212.945l1.533,8.169a11.715,11.715,0,0,1-.148,5.386,8.509,8.509,0,0,1-2.492,4.081,8.97,8.97,0,0,1-4.493,2.132,8.954,8.954,0,0,1-4.959-.359,8.494,8.494,0,0,1-3.8-2.9,11.7,11.7,0,0,1-2.089-4.966l-1.531-8.167Zm-13.072,10.694a6.158,6.158,0,0,0,2.311,4.023,5.394,5.394,0,0,0,4.371.841,5.4,5.4,0,0,0,3.772-2.37,6.149,6.149,0,0,0,.695-4.582l-.712-3.8-11.149,2.091Z" transform="translate(428.964 -83.831)" fill="#fff"/>
    <path id="Path_252" data-name="Path 252" d="M-107.731,237l-.451-8.483-4-1.409-.231-4.334,18.7,7.174.222,4.175-17.835,9.139-.235-4.436Zm3.138-1.5,6.841-3.267-7.148-2.526Z" transform="translate(430.81 -72.248)" fill="#fff"/>
    <path id="Path_253" data-name="Path 253" d="M-94.341,250.99l-18.24-1.431.272-3.465,11.789-8.224L-111.594,237l.327-4.169,18.238,1.431-.272,3.491-11.787,8.2,11.075.869Z" transform="translate(430.613 -60.404)" fill="#fff"/>
    <path id="Path_254" data-name="Path 254" d="M-111.451,245.746a9.077,9.077,0,0,1,4.034-2.779,9.294,9.294,0,0,1,5.038-.257,9.273,9.273,0,0,1,4.5,2.274,9.071,9.071,0,0,1,2.563,4.175,10.552,10.552,0,0,1,.137,5.225,10.668,10.668,0,0,1-1.71,4.034,8.62,8.62,0,0,1-3.019,2.661l-1.893-3.18a5.845,5.845,0,0,0,3.049-4.055,6.116,6.116,0,0,0-.1-3.121,5.28,5.28,0,0,0-1.6-2.463,6.134,6.134,0,0,0-2.812-1.357,6.115,6.115,0,0,0-3.121.1,5.273,5.273,0,0,0-2.463,1.6,6.125,6.125,0,0,0-1.357,2.812,5.807,5.807,0,0,0,1.172,4.948l-3.019,2.141a8.477,8.477,0,0,1-1.707-3.674,10.783,10.783,0,0,1,.074-4.393A10.536,10.536,0,0,1-111.451,245.746Z" transform="translate(428.997 -49.039)" fill="#fff"/>
    <path id="Path_255" data-name="Path 255" d="M-113.63,265.083l-3.217-1.1,4.563-13.409,17.319,5.891-4.452,13.087-3.217-1.093,3.1-9.106-3.759-1.278-2.735,8.041-3.119-1.059,2.735-8.043-4.007-1.363Z" transform="translate(425.588 -39.502)" fill="#fff"/>
    <path id="Path_256" data-name="Path 256" d="M-126.279,291.263-129.01,294l-5.255-5.24a11.047,11.047,0,0,1,1.213-3.661,13.459,13.459,0,0,1,2.361-3.219,10.7,10.7,0,0,1,4.478-2.768,9.045,9.045,0,0,1,4.907-.148,9.3,9.3,0,0,1,4.365,2.526,9.289,9.289,0,0,1,2.539,4.358,9.008,9.008,0,0,1-.15,4.924,10.912,10.912,0,0,1-2.792,4.524A11.352,11.352,0,0,1-121,297.814a8.651,8.651,0,0,1-3.99.673l.142-3.7a6.285,6.285,0,0,0,4.8-1.893,6.439,6.439,0,0,0,1.677-2.718,5.256,5.256,0,0,0,.033-2.958,6.071,6.071,0,0,0-1.629-2.694,6.012,6.012,0,0,0-2.683-1.605,5.348,5.348,0,0,0-2.955.024,6.213,6.213,0,0,0-2.7,1.649,6.876,6.876,0,0,0-1.771,2.886Z" transform="translate(405.071 -6.383)" fill="#fff"/>
    <path id="Path_257" data-name="Path 257" d="M-138.407,290.838l5.913,1.862.166-.128,2.91-2.259-3.123-4.027,3.343-2.6,11.219,14.453L-124.235,303a10.15,10.15,0,0,1-3.833,1.949,6.265,6.265,0,0,1-3.587-.126,6.35,6.35,0,0,1-2.927-2.2,6.189,6.189,0,0,1-1.381-3.378,6.19,6.19,0,0,1,.812-3.491l-6.847-2.13Zm9.446,10.419a4.445,4.445,0,0,0,2.8-1.128l2.725-2.115-3.909-5.038-2.725,2.115a4.386,4.386,0,0,0-1.779,2.439A2.91,2.91,0,0,0-131.2,300,2.9,2.9,0,0,0-128.961,301.257Z" transform="translate(395.962 -0.498)" fill="#fff"/>
    <path id="Path_258" data-name="Path 258" d="M-138.638,290.107a9.112,9.112,0,0,1,4.8,1.124,9.249,9.249,0,0,1,3.557,3.539,9.231,9.231,0,0,1,1.32,4.839,9.1,9.1,0,0,1-1.392,4.726,10.666,10.666,0,0,1-3.82,3.646,10.621,10.621,0,0,1-5.046,1.516,9.242,9.242,0,0,1-4.8-1.124,9.155,9.155,0,0,1-3.567-3.533,9.175,9.175,0,0,1-1.311-4.848,9.252,9.252,0,0,1,1.392-4.726,10.635,10.635,0,0,1,3.809-3.639A10.694,10.694,0,0,1-138.638,290.107Zm-5.4,6.754a5.374,5.374,0,0,0-.73,2.827,6.148,6.148,0,0,0,.882,3,6.129,6.129,0,0,0,2.169,2.245,5.346,5.346,0,0,0,2.818.762,5.814,5.814,0,0,0,2.905-.828,5.8,5.8,0,0,0,2.156-2.117,5.346,5.346,0,0,0,.727-2.827,6.139,6.139,0,0,0-.882-2.995,6.1,6.1,0,0,0-2.169-2.245,5.342,5.342,0,0,0-2.818-.765,5.819,5.819,0,0,0-2.905.828A5.826,5.826,0,0,0-144.035,296.86Z" transform="translate(387.835 7.053)" fill="#fff"/>
    <path id="Path_259" data-name="Path 259" d="M-146.608,294.791a9.114,9.114,0,0,1,4.587,1.8A9.239,9.239,0,0,1-139,300.6a9.257,9.257,0,0,1,.616,4.981,9.108,9.108,0,0,1-2.052,4.48,10.692,10.692,0,0,1-4.3,3.062,10.605,10.605,0,0,1-5.207.78,9.235,9.235,0,0,1-4.589-1.8,9.177,9.177,0,0,1-3.029-4.005,9.171,9.171,0,0,1-.6-4.983,9.228,9.228,0,0,1,2.052-4.48,10.594,10.594,0,0,1,4.288-3.058A10.687,10.687,0,0,1-146.608,294.791Zm-6.305,5.918a5.344,5.344,0,0,0-1.124,2.694,6.092,6.092,0,0,0,.444,3.09,6.118,6.118,0,0,0,1.827,2.531,5.328,5.328,0,0,0,2.679,1.159,5.818,5.818,0,0,0,2.995-.405,5.808,5.808,0,0,0,2.435-1.788,5.363,5.363,0,0,0,1.124-2.694,6.118,6.118,0,0,0-.446-3.09,6.121,6.121,0,0,0-1.825-2.533,5.351,5.351,0,0,0-2.681-1.157,5.79,5.79,0,0,0-2.992.405A5.789,5.789,0,0,0-152.913,300.708Z" transform="translate(376.776 12.509)" fill="#fff"/>
    <path id="Path_260" data-name="Path 260" d="M-166.168,318.569l3.095-19.693,4.049-1.045,12.216,15.742-4.43,1.141-8.655-11.26-2.2,14.063Z" transform="translate(367.492 16.159)" fill="#fff"/>
    <path id="Path_261" data-name="Path 261" d="M-174.726,304.493l-.457-3.367,14.037-1.908,2.465,18.127-13.7,1.862-.46-3.365,9.531-1.3-.536-3.936-8.416,1.146-.444-3.265,8.418-1.143-.571-4.2Z" transform="translate(356.873 17.793)" fill="#fff"/>
    <path id="Path_262" data-name="Path 262" d="M-209.078,292.16l-5.04,9.751,8.947-5.539,1.692.88.693,10.286,4.955-9.531,3.524,1.832-8.44,16.232-3.106-1.614-.832-13.246-11.227,6.976-3.084-1.6,8.392-16.256Z" transform="translate(302.908 7.321)" fill="#fff"/>
    <path id="Path_263" data-name="Path 263" d="M-209.953,292.04a9.116,9.116,0,0,1,.891,4.846,9.219,9.219,0,0,1-1.816,4.676,9.242,9.242,0,0,1-3.905,3.151,9.107,9.107,0,0,1-4.887.619,10.706,10.706,0,0,1-4.872-2.039,10.628,10.628,0,0,1-3.411-4.014,9.281,9.281,0,0,1-.893-4.848,9.182,9.182,0,0,1,1.808-4.683,9.149,9.149,0,0,1,3.916-3.143,9.208,9.208,0,0,1,4.887-.619,10.563,10.563,0,0,1,4.861,2.03A10.713,10.713,0,0,1-209.953,292.04ZM-218.3,289.8a5.344,5.344,0,0,0-2.884.466,6.109,6.109,0,0,0-2.391,2.008,6.139,6.139,0,0,0-1.187,2.886,5.334,5.334,0,0,0,.431,2.89,5.8,5.8,0,0,0,1.921,2.328,5.809,5.809,0,0,0,2.8,1.126,5.365,5.365,0,0,0,2.884-.466,6.089,6.089,0,0,0,2.389-2.008,6.1,6.1,0,0,0,1.189-2.886,5.374,5.374,0,0,0-.429-2.89,5.815,5.815,0,0,0-1.925-2.328A5.815,5.815,0,0,0-218.3,289.8Z" transform="translate(293.62 2.098)" fill="#fff"/>
    <path id="Path_264" data-name="Path 264" d="M-237.862,288.35l18.349-7.788,3.029,2.881-6.9,18.693-3.313-3.154,4.977-13.3-13.1,5.573Z" transform="translate(283.041 -4.182)" fill="#fff"/>
    <path id="Path_265" data-name="Path 265" d="M-231.615,274.805l2.614-2.171,9.054,10.894-14.072,11.693-8.836-10.635,2.613-2.171,6.146,7.4,3.056-2.539-5.427-6.534,2.533-2.1,5.427,6.534,3.256-2.707Z" transform="translate(277.16 -13.521)" fill="#fff"/>
    <path id="Path_266" data-name="Path 266" d="M-256.673,256.222l-1.119-8.237a11.693,11.693,0,0,1,.416-5.371,8.529,8.529,0,0,1,2.694-3.953,8.993,8.993,0,0,1,4.6-1.9,9.012,9.012,0,0,1,4.935.608,8.507,8.507,0,0,1,3.65,3.09,11.664,11.664,0,0,1,1.836,5.066l1.119,8.235Zm13.592-10.025a6.139,6.139,0,0,0-2.106-4.132A5.4,5.4,0,0,0-249.512,241a5.4,5.4,0,0,0-3.883,2.176,6.158,6.158,0,0,0-.926,4.545l.521,3.833,11.24-1.529Z" transform="translate(259.409 -55.9)" fill="#fff"/>
    <path id="Path_267" data-name="Path 267" d="M-244.269,232.884l.137,8.494,3.946,1.557.07,4.336-18.425-7.856-.065-4.182,18.157-8.474.072,4.441Zm-3.193,1.385-6.956,3.014,7.05,2.788Z" transform="translate(258.606 -67.558)" fill="#fff"/>
    <path id="Path_268" data-name="Path 268" d="M-256.306,217.4l18.146,2.337-.444,3.448-12.181,7.627,11.016,1.42-.534,4.147-18.144-2.335.446-3.476,12.179-7.6-11.018-1.418Z" transform="translate(258.793 -78.585)" fill="#fff"/>
    <path id="Path_269" data-name="Path 269" d="M-239.966,223.606a9.075,9.075,0,0,1-4.169,2.574,9.29,9.29,0,0,1-5.044,0,9.289,9.289,0,0,1-4.38-2.5,9.05,9.05,0,0,1-2.35-4.3,10.577,10.577,0,0,1,.126-5.225,10.7,10.7,0,0,1,1.908-3.942,8.64,8.64,0,0,1,3.151-2.5l1.731,3.269a5.856,5.856,0,0,0-3.252,3.9A6.132,6.132,0,0,0-252.3,218a5.3,5.3,0,0,0,1.477,2.542,6.109,6.109,0,0,0,2.74,1.5,6.084,6.084,0,0,0,3.121.054,5.279,5.279,0,0,0,2.542-1.474,6.159,6.159,0,0,0,1.5-2.742,5.81,5.81,0,0,0-.921-5l3.121-1.986a8.47,8.47,0,0,1,1.52,3.755,10.738,10.738,0,0,1-.3,4.384A10.465,10.465,0,0,1-239.966,223.606Z" transform="translate(261.467 -89.992)" fill="#fff"/>
    <path id="Path_270" data-name="Path 270" d="M-235.2,204.721l3.158,1.255-5.225,13.166-17.005-6.749,5.1-12.85,3.158,1.252-3.548,8.94,3.692,1.466,3.134-7.9,3.062,1.215-3.134,7.9,3.933,1.562Z" transform="translate(263.713 -99.619)" fill="#fff"/>
  </g>
  <g id="Group_5" data-name="Group 5" transform="translate(34.936 34.937)">
    <path id="Path_271" data-name="Path 271" d="M-103.836,451.4c-78.8,0-142.911-64.11-142.911-142.911s64.11-142.909,142.911-142.909S39.074,229.688,39.074,308.487-25.036,451.4-103.836,451.4Zm0-283.643c-77.6,0-140.734,63.132-140.734,140.731s63.134,140.733,140.734,140.733S36.9,386.087,36.9,308.487-26.238,167.756-103.836,167.756Z" transform="translate(246.747 -165.578)" fill="#fff"/>
  </g>
  <g id="Group_6" data-name="Group 6">
    <path id="Path_272" data-name="Path 272" d="M-84.94,505.23c-98.066,0-177.848-79.782-177.848-177.848S-183.006,149.537-84.94,149.537,92.905,229.317,92.905,327.383,13.123,505.23-84.94,505.23Zm0-353.515c-96.866,0-175.67,78.8-175.67,175.668s78.8,175.67,175.67,175.67,175.668-78.8,175.668-175.67S11.923,151.715-84.94,151.715Z" transform="translate(262.788 -149.537)" fill="#fff"/>
  </g>
</svg>
